<svg xmlns="http://www.w3.org/2000/svg" xmlns:xlink="http://www.w3.org/1999/xlink" width="1024" zoomAndPan="magnify" viewBox="0 0 768 767.999994" height="1024" preserveAspectRatio="xMidYMid meet" version="1.0"><path fill="#ffffff" d="M 439.328125 736.078125 C 290.496094 767.046875 142.414062 700.453125 69.1875 568.636719 C -12.425781 421.734375 21.996094 230.761719 160.664062 124.914062 C 217.011719 81.902344 280.460938 58.882812 351.792969 56.089844 C 428.019531 53.109375 497.078125 72.542969 559.253906 116.445312 C 577.503906 129.332031 577.445312 130.355469 562.457031 145.636719 C 545.304688 163.121094 528.886719 181.566406 510.144531 197.1875 C 491.773438 212.503906 491.472656 230.484375 495.472656 252.746094 C 506.960938 247.195312 513.714844 237.84375 521.453125 230.164062 C 558.246094 193.640625 594.171875 156.21875 631.316406 120.058594 C 642.753906 108.925781 641.320312 101.980469 629.773438 93.226562 C 622.101562 87.414062 615.222656 80.464844 608.4375 73.578125 C 600.78125 65.816406 601.121094 58.847656 612.976562 56.929688 C 651.675781 50.664062 690.46875 45.011719 729.238281 39.167969 C 738.511719 37.773438 746.09375 39.519531 743.835938 51.226562 C 735.789062 93.0625 727.292969 134.8125 718.878906 176.582031 C 718.691406 177.515625 717.410156 178.230469 715.050781 180.742188 C 695.847656 173.402344 689.757812 151.855469 679.015625 143.300781 C 629.421875 190.082031 580.53125 236.195312 529.960938 283.902344 C 554.90625 288.34375 573.347656 286.269531 589.472656 267.492188 C 607.484375 246.515625 626.476562 225.945312 651.167969 206.964844 C 706.0625 290.457031 723.972656 379.894531 701.433594 474.851562 C 668.378906 614.125 578.023438 699.15625 439.328125 736.078125 M 478.277344 420.226562 C 500.671875 401.757812 523.117188 383.34375 545.433594 364.765625 C 549.257812 361.574219 554.320312 358.253906 552.824219 352.3125 C 551.023438 345.1875 544.386719 345.703125 538.796875 345.332031 C 506.453125 343.1875 474.121094 340.558594 441.734375 339.332031 C 427.070312 338.777344 418.996094 332.933594 414.164062 319.140625 C 404.011719 290.152344 392.878906 261.507812 381.691406 232.894531 C 379.121094 226.320312 377.457031 216.980469 368.539062 216.742188 C 359.273438 216.488281 357.882812 226.054688 355.371094 232.578125 C 343.734375 262.84375 332.367188 293.222656 321.46875 323.757812 C 317.769531 334.125 312.382812 339.097656 300.578125 339.519531 C 267.632812 340.6875 234.734375 343.222656 201.824219 345.378906 C 195.261719 345.8125 187.050781 344.058594 184.023438 352.175781 C 180.890625 360.59375 188.554688 364.046875 193.609375 368.324219 C 217.503906 388.542969 241.167969 409.0625 265.488281 428.757812 C 277.664062 438.609375 281.238281 449.023438 276.414062 464.464844 C 267.265625 493.742188 259.652344 523.519531 252.128906 553.265625 C 250.65625 559.089844 244.9375 566.941406 253.304688 571.785156 C 260.28125 575.828125 266.300781 570.457031 271.960938 566.746094 C 299.554688 548.632812 327.308594 530.730469 354.558594 512.101562 C 364.289062 505.441406 372.296875 504.601562 382.347656 511.566406 C 409.476562 530.363281 437.136719 548.386719 464.625 566.652344 C 469.734375 570.042969 474.980469 575.460938 481.515625 571.304688 C 488.480469 566.871094 484.683594 560.3125 483.023438 554.359375 C 475.6875 528.078125 470.546875 500.945312 460.621094 475.691406 C 451.230469 451.816406 453.75 434.707031 478.277344 420.226562 Z M 478.277344 420.226562 " fill-opacity="1" fill-rule="nonzero"/></svg>