<svg xmlns="http://www.w3.org/2000/svg" width="64" height="64" viewBox="0 0 64 64" fill="none">
  <path fill="#1a3f64" d="M 33.1 34.5 C 30.3 35.1 27.4 34 25.9 31.5 C 24.4 28.7 25.1 25.1 27.7 23.1 C 28.8 22.3 30.1 21.8 31.4 21.8 C 32.9 21.7 34.2 22.1 35.4 22.9 C 35.7 23.1 35.7 23.1 35.4 23.4 C 35.1 23.7 34.8 24.1 34.4 24.4 C 34.1 24.7 34.1 25 34.2 25.4 C 34.4 25.3 34.5 25.1 34.7 24.9 C 35.4 24.2 36 23.5 36.7 22.8 C 36.9 22.6 36.9 22.5 36.7 22.3 C 36.5 22.2 36.4 22.1 36.3 21.9 C 36.1 21.8 36.2 21.6 36.4 21.6 C 37.1 21.5 37.9 21.4 38.6 21.2 C 38.8 21.2 38.9 21.2 38.9 21.4 C 38.7 22.2 38.6 23 38.4 23.8 C 38.4 23.9 38.4 23.9 38.4 24 C 38 23.8 37.9 23.4 37.7 23.3 C 36.8 24.1 35.8 25 34.8 25.9 C 35.3 26 35.6 25.9 35.9 25.6 C 36.3 25.2 36.6 24.8 37.1 24.4 C 38.1 25.9 38.5 27.6 38 29.4 C 37.4 31.9 35.7 33.6 33.1 34.5 Z M 33.8 28.5 C 34.2 28.2 34.7 27.8 35.1 27.5 C 35.2 27.4 35.3 27.4 35.2 27.2 C 35.2 27.1 35.1 27.1 34.9 27.1 C 34.3 27 33.7 27 33.1 27 C 32.8 27 32.7 26.8 32.6 26.6 C 32.4 26 32.2 25.5 32 24.9 C 31.9 24.8 31.9 24.6 31.7 24.6 C 31.5 24.6 31.5 24.8 31.5 24.9 C 31.3 25.4 31.1 26 30.9 26.6 C 30.8 26.8 30.7 26.9 30.5 26.9 C 29.9 27 29.3 27 28.7 27.1 C 28.5 27.1 28.4 27 28.3 27.2 C 28.3 27.3 28.4 27.4 28.5 27.5 C 28.9 27.8 29.4 28.2 29.8 28.6 C 30.1 28.8 30.1 29 30 29.3 C 29.8 29.8 29.7 30.4 29.5 31 C 29.5 31.1 29.4 31.2 29.6 31.3 C 29.7 31.4 29.8 31.3 29.9 31.2 C 30.4 30.9 30.9 30.5 31.4 30.2 C 31.6 30.1 31.7 30.1 31.9 30.2 C 32.4 30.6 32.9 30.9 33.4 31.2 C 33.5 31.3 33.6 31.4 33.7 31.3 C 33.9 31.2 33.8 31.1 33.8 31 C 33.6 30.5 33.5 29.9 33.3 29.5 C 33.2 29 33.2 28.7 33.8 28.5 Z"/>
</svg>
