<svg xmlns="http://www.w3.org/2000/svg" xmlns:xlink="http://www.w3.org/1999/xlink" width="1024" zoomAndPan="magnify" viewBox="0 0 768 767.999994" height="1024" preserveAspectRatio="xMidYMid meet" version="1.0"><defs><g/><clipPath id="6c4f80a996"><rect x="0" width="299" y="0" height="91"/></clipPath><clipPath id="583760081d"><rect x="0" width="256" y="0" height="36"/></clipPath></defs><path fill="#1a3f64" d="M 396.703125 414.460938 C 362.523438 421.574219 328.519531 406.28125 311.703125 376.011719 C 292.964844 342.277344 300.867188 298.421875 332.710938 274.117188 C 345.652344 264.238281 360.222656 258.953125 376.601562 258.3125 C 394.105469 257.628906 409.964844 262.089844 424.242188 272.171875 C 428.433594 275.132812 428.417969 275.367188 424.976562 278.875 C 421.039062 282.890625 417.269531 287.125 412.964844 290.714844 C 408.746094 294.230469 408.675781 298.359375 409.59375 303.472656 C 412.234375 302.195312 413.785156 300.050781 415.5625 298.285156 C 424.011719 289.898438 432.257812 281.304688 440.789062 273.003906 C 443.414062 270.445312 443.085938 268.851562 440.433594 266.839844 C 438.671875 265.503906 437.09375 263.910156 435.535156 262.328125 C 433.777344 260.546875 433.855469 258.945312 436.578125 258.503906 C 445.464844 257.066406 454.371094 255.769531 463.277344 254.425781 C 465.40625 254.105469 467.144531 254.507812 466.628906 257.195312 C 464.78125 266.804688 462.828125 276.390625 460.894531 285.980469 C 460.851562 286.195312 460.558594 286.359375 460.015625 286.9375 C 455.609375 285.25 454.210938 280.304688 451.742188 278.339844 C 440.355469 289.082031 429.128906 299.671875 417.515625 310.625 C 423.242188 311.644531 427.476562 311.167969 431.179688 306.859375 C 435.316406 302.042969 439.679688 297.316406 445.347656 292.957031 C 457.953125 312.132812 462.066406 332.671875 456.890625 354.476562 C 449.300781 386.457031 428.550781 405.984375 396.703125 414.460938 M 405.644531 341.929688 C 410.789062 337.691406 415.941406 333.460938 421.066406 329.195312 C 421.945312 328.460938 423.109375 327.699219 422.765625 326.335938 C 422.351562 324.699219 420.828125 324.816406 419.542969 324.734375 C 412.117188 324.242188 404.691406 323.636719 397.253906 323.355469 C 393.886719 323.226562 392.03125 321.886719 390.921875 318.71875 C 388.59375 312.0625 386.035156 305.484375 383.46875 298.914062 C 382.875 297.402344 382.492188 295.257812 380.445312 295.203125 C 378.320312 295.144531 378 297.34375 377.421875 298.839844 C 374.75 305.792969 372.140625 312.765625 369.636719 319.777344 C 368.789062 322.160156 367.550781 323.300781 364.839844 323.398438 C 357.273438 323.667969 349.71875 324.25 342.164062 324.742188 C 340.65625 324.84375 338.769531 324.441406 338.074219 326.304688 C 337.355469 328.238281 339.117188 329.03125 340.277344 330.011719 C 345.761719 334.65625 351.195312 339.367188 356.78125 343.890625 C 359.578125 346.152344 360.398438 348.542969 359.289062 352.089844 C 357.191406 358.8125 355.441406 365.652344 353.714844 372.480469 C 353.375 373.820312 352.0625 375.621094 353.984375 376.734375 C 355.585938 377.664062 356.96875 376.429688 358.269531 375.578125 C 364.605469 371.417969 370.976562 367.308594 377.234375 363.027344 C 379.46875 361.5 381.308594 361.308594 383.617188 362.90625 C 389.847656 367.222656 396.199219 371.359375 402.511719 375.554688 C 403.683594 376.335938 404.890625 377.578125 406.390625 376.625 C 407.988281 375.605469 407.117188 374.101562 406.734375 372.734375 C 405.050781 366.699219 403.871094 360.464844 401.59375 354.667969 C 399.433594 349.1875 400.015625 345.257812 405.644531 341.929688 Z M 405.644531 341.929688 " fill-opacity="1" fill-rule="nonzero"/><g transform="matrix(1, 0, 0, 1, 235, 404)"><g clip-path="url(#6c4f80a996)"><g fill="#1a3f64" fill-opacity="1"><g transform="translate(2.810468, 71.26002)"><g><path d="M 57.359375 -51.484375 L 35.296875 0 L 20.953125 0 L -1.03125 -51.484375 L 14.703125 -51.484375 L 28.6875 -17.953125 L 42.953125 -51.484375 Z M 57.359375 -51.484375 "/></g></g></g><g fill="#1a3f64" fill-opacity="1"><g transform="translate(55.087539, 71.26002)"><g><path d="M 24.484375 0.65625 C 20.222656 0.65625 16.375 -0.222656 12.9375 -1.984375 C 9.507812 -3.753906 6.828125 -6.207031 4.890625 -9.34375 C 2.953125 -12.476562 1.984375 -16.03125 1.984375 -20 C 1.984375 -23.925781 2.953125 -27.457031 4.890625 -30.59375 C 6.828125 -33.726562 9.5 -36.164062 12.90625 -37.90625 C 16.3125 -39.65625 20.171875 -40.53125 24.484375 -40.53125 C 28.804688 -40.53125 32.679688 -39.65625 36.109375 -37.90625 C 39.546875 -36.164062 42.21875 -33.738281 44.125 -30.625 C 46.039062 -27.519531 47 -23.976562 47 -20 C 47 -16.03125 46.039062 -12.476562 44.125 -9.34375 C 42.21875 -6.207031 39.546875 -3.753906 36.109375 -1.984375 C 32.679688 -0.222656 28.804688 0.65625 24.484375 0.65625 Z M 24.484375 -10.4375 C 26.941406 -10.4375 28.953125 -11.28125 30.515625 -12.96875 C 32.085938 -14.664062 32.875 -17.007812 32.875 -20 C 32.875 -22.945312 32.085938 -25.253906 30.515625 -26.921875 C 28.953125 -28.585938 26.941406 -29.421875 24.484375 -29.421875 C 22.035156 -29.421875 20.023438 -28.585938 18.453125 -26.921875 C 16.890625 -25.253906 16.109375 -22.945312 16.109375 -20 C 16.109375 -17.007812 16.890625 -14.664062 18.453125 -12.96875 C 20.023438 -11.28125 22.035156 -10.4375 24.484375 -10.4375 Z M 24.484375 -10.4375 "/></g></g></g><g fill="#1a3f64" fill-opacity="1"><g transform="translate(104.056627, 71.26002)"><g><path d="M 46.40625 -39.859375 L 46.40625 0 L 33.09375 0 L 33.09375 -4.265625 C 31.625 -2.648438 29.859375 -1.425781 27.796875 -0.59375 C 25.742188 0.238281 23.5625 0.65625 21.25 0.65625 C 16.101562 0.65625 12 -0.859375 8.9375 -3.890625 C 5.875 -6.929688 4.34375 -11.492188 4.34375 -17.578125 L 4.34375 -39.859375 L 18.3125 -39.859375 L 18.3125 -19.859375 C 18.3125 -16.867188 18.875 -14.6875 20 -13.3125 C 21.132812 -11.9375 22.78125 -11.25 24.9375 -11.25 C 27.132812 -11.25 28.929688 -12.019531 30.328125 -13.5625 C 31.734375 -15.113281 32.4375 -17.484375 32.4375 -20.671875 L 32.4375 -39.859375 Z M 46.40625 -39.859375 "/></g></g></g><g fill="#1a3f64" fill-opacity="1"><g transform="translate(154.93743, 71.26002)"><g><path d="M 24.859375 0.65625 C 20.441406 0.65625 16.492188 -0.222656 13.015625 -1.984375 C 9.535156 -3.753906 6.828125 -6.207031 4.890625 -9.34375 C 2.953125 -12.476562 1.984375 -16.03125 1.984375 -20 C 1.984375 -23.976562 2.953125 -27.519531 4.890625 -30.625 C 6.828125 -33.738281 9.535156 -36.164062 13.015625 -37.90625 C 16.492188 -39.65625 20.441406 -40.53125 24.859375 -40.53125 C 29.367188 -40.53125 33.265625 -39.5625 36.546875 -37.625 C 39.835938 -35.6875 42.171875 -33 43.546875 -29.5625 L 32.734375 -24.046875 C 30.910156 -27.628906 28.257812 -29.421875 24.78125 -29.421875 C 22.28125 -29.421875 20.207031 -28.585938 18.5625 -26.921875 C 16.925781 -25.253906 16.109375 -22.945312 16.109375 -20 C 16.109375 -17.007812 16.925781 -14.664062 18.5625 -12.96875 C 20.207031 -11.28125 22.28125 -10.4375 24.78125 -10.4375 C 28.257812 -10.4375 30.910156 -12.226562 32.734375 -15.8125 L 43.546875 -10.296875 C 42.171875 -6.859375 39.835938 -4.171875 36.546875 -2.234375 C 33.265625 -0.304688 29.367188 0.65625 24.859375 0.65625 Z M 24.859375 0.65625 "/></g></g></g><g fill="#1a3f64" fill-opacity="1"><g transform="translate(199.127233, 71.26002)"><g><path d="M 30.453125 -40.53125 C 35.398438 -40.53125 39.378906 -39.054688 42.390625 -36.109375 C 45.410156 -33.171875 46.921875 -28.734375 46.921875 -22.796875 L 46.921875 0 L 32.953125 0 L 32.953125 -20.515625 C 32.953125 -25.960938 30.769531 -28.6875 26.40625 -28.6875 C 24 -28.6875 22.070312 -27.898438 20.625 -26.328125 C 19.175781 -24.753906 18.453125 -22.398438 18.453125 -19.265625 L 18.453125 0 L 4.484375 0 L 4.484375 -54.578125 L 18.453125 -54.578125 L 18.453125 -36.1875 C 19.972656 -37.601562 21.765625 -38.679688 23.828125 -39.421875 C 25.890625 -40.160156 28.097656 -40.53125 30.453125 -40.53125 Z M 30.453125 -40.53125 "/></g></g></g><g fill="#1a3f64" fill-opacity="1"><g transform="translate(249.566738, 71.26002)"><g><path d="M 46.484375 -39.859375 L 29.265625 1.625 C 27.253906 6.519531 24.800781 9.960938 21.90625 11.953125 C 19.019531 13.941406 15.492188 14.9375 11.328125 14.9375 C 9.210938 14.9375 7.085938 14.601562 4.953125 13.9375 C 2.828125 13.269531 1.101562 12.398438 -0.21875 11.328125 L 4.640625 1.546875 C 5.421875 2.273438 6.363281 2.847656 7.46875 3.265625 C 8.570312 3.679688 9.6875 3.890625 10.8125 3.890625 C 12.132812 3.890625 13.222656 3.617188 14.078125 3.078125 C 14.941406 2.546875 15.664062 1.691406 16.25 0.515625 L -0.8125 -39.859375 L 13.53125 -39.859375 L 23.3125 -15.515625 L 33.171875 -39.859375 Z M 46.484375 -39.859375 "/></g></g></g></g></g><g transform="matrix(1, 0, 0, 1, 253, 485)"><g clip-path="url(#583760081d)"><g fill="#1a3f64" fill-opacity="1"><g transform="translate(0.838194, 27.169821)"><g><path d="M 8.984375 0.28125 C 7.421875 0.28125 5.910156 0.0625 4.453125 -0.375 C 3.003906 -0.820312 1.859375 -1.410156 1.015625 -2.140625 L 2.3125 -5.0625 C 3.132812 -4.40625 4.148438 -3.867188 5.359375 -3.453125 C 6.566406 -3.035156 7.773438 -2.828125 8.984375 -2.828125 C 10.484375 -2.828125 11.601562 -3.066406 12.34375 -3.546875 C 13.09375 -4.035156 13.46875 -4.671875 13.46875 -5.453125 C 13.46875 -6.035156 13.257812 -6.515625 12.84375 -6.890625 C 12.425781 -7.265625 11.898438 -7.554688 11.265625 -7.765625 C 10.628906 -7.984375 9.765625 -8.226562 8.671875 -8.5 C 7.128906 -8.863281 5.878906 -9.226562 4.921875 -9.59375 C 3.972656 -9.957031 3.15625 -10.53125 2.46875 -11.3125 C 1.78125 -12.09375 1.4375 -13.144531 1.4375 -14.46875 C 1.4375 -15.59375 1.738281 -16.609375 2.34375 -17.515625 C 2.957031 -18.429688 3.875 -19.160156 5.09375 -19.703125 C 6.320312 -20.242188 7.820312 -20.515625 9.59375 -20.515625 C 10.820312 -20.515625 12.03125 -20.359375 13.21875 -20.046875 C 14.414062 -19.742188 15.453125 -19.300781 16.328125 -18.71875 L 15.140625 -15.796875 C 14.253906 -16.316406 13.328125 -16.710938 12.359375 -16.984375 C 11.398438 -17.253906 10.46875 -17.390625 9.5625 -17.390625 C 8.082031 -17.390625 6.976562 -17.140625 6.25 -16.640625 C 5.53125 -16.140625 5.171875 -15.472656 5.171875 -14.640625 C 5.171875 -14.066406 5.375 -13.597656 5.78125 -13.234375 C 6.195312 -12.867188 6.722656 -12.578125 7.359375 -12.359375 C 8.003906 -12.148438 8.875 -11.910156 9.96875 -11.640625 C 11.46875 -11.296875 12.695312 -10.9375 13.65625 -10.5625 C 14.625 -10.1875 15.445312 -9.613281 16.125 -8.84375 C 16.8125 -8.070312 17.15625 -7.03125 17.15625 -5.71875 C 17.15625 -4.601562 16.851562 -3.59375 16.25 -2.6875 C 15.644531 -1.78125 14.722656 -1.054688 13.484375 -0.515625 C 12.253906 0.015625 10.753906 0.28125 8.984375 0.28125 Z M 8.984375 0.28125 "/></g></g></g><g fill="#1a3f64" fill-opacity="1"><g transform="translate(19.006573, 27.169821)"><g><path d="M 9.296875 0.203125 C 7.742188 0.203125 6.335938 -0.128906 5.078125 -0.796875 C 3.828125 -1.472656 2.847656 -2.414062 2.140625 -3.625 C 1.441406 -4.832031 1.09375 -6.195312 1.09375 -7.71875 C 1.09375 -9.238281 1.441406 -10.59375 2.140625 -11.78125 C 2.847656 -12.976562 3.828125 -13.910156 5.078125 -14.578125 C 6.335938 -15.253906 7.742188 -15.59375 9.296875 -15.59375 C 10.878906 -15.59375 12.296875 -15.253906 13.546875 -14.578125 C 14.796875 -13.910156 15.769531 -12.976562 16.46875 -11.78125 C 17.175781 -10.59375 17.53125 -9.238281 17.53125 -7.71875 C 17.53125 -6.195312 17.175781 -4.832031 16.46875 -3.625 C 15.769531 -2.414062 14.796875 -1.472656 13.546875 -0.796875 C 12.296875 -0.128906 10.878906 0.203125 9.296875 0.203125 Z M 9.296875 -2.890625 C 10.628906 -2.890625 11.726562 -3.332031 12.59375 -4.21875 C 13.457031 -5.101562 13.890625 -6.269531 13.890625 -7.71875 C 13.890625 -9.15625 13.457031 -10.316406 12.59375 -11.203125 C 11.726562 -12.085938 10.628906 -12.53125 9.296875 -12.53125 C 7.972656 -12.53125 6.878906 -12.085938 6.015625 -11.203125 C 5.160156 -10.316406 4.734375 -9.15625 4.734375 -7.71875 C 4.734375 -6.269531 5.160156 -5.101562 6.015625 -4.21875 C 6.878906 -3.332031 7.972656 -2.890625 9.296875 -2.890625 Z M 9.296875 -2.890625 "/></g></g></g><g fill="#1a3f64" fill-opacity="1"><g transform="translate(37.63711, 27.169821)"><g><path d="M 9.453125 0.203125 C 7.847656 0.203125 6.410156 -0.128906 5.140625 -0.796875 C 3.867188 -1.472656 2.875 -2.414062 2.15625 -3.625 C 1.445312 -4.832031 1.09375 -6.195312 1.09375 -7.71875 C 1.09375 -9.238281 1.445312 -10.59375 2.15625 -11.78125 C 2.875 -12.976562 3.863281 -13.910156 5.125 -14.578125 C 6.382812 -15.253906 7.828125 -15.59375 9.453125 -15.59375 C 10.972656 -15.59375 12.304688 -15.285156 13.453125 -14.671875 C 14.597656 -14.054688 15.457031 -13.171875 16.03125 -12.015625 L 13.265625 -10.40625 C 12.816406 -11.113281 12.257812 -11.644531 11.59375 -12 C 10.9375 -12.351562 10.210938 -12.53125 9.421875 -12.53125 C 8.066406 -12.53125 6.945312 -12.09375 6.0625 -11.21875 C 5.175781 -10.34375 4.734375 -9.175781 4.734375 -7.71875 C 4.734375 -6.25 5.171875 -5.078125 6.046875 -4.203125 C 6.921875 -3.328125 8.046875 -2.890625 9.421875 -2.890625 C 10.210938 -2.890625 10.9375 -3.066406 11.59375 -3.421875 C 12.257812 -3.773438 12.816406 -4.3125 13.265625 -5.03125 L 16.03125 -3.40625 C 15.4375 -2.25 14.566406 -1.359375 13.421875 -0.734375 C 12.273438 -0.109375 10.953125 0.203125 9.453125 0.203125 Z M 9.453125 0.203125 "/></g></g></g><g fill="#1a3f64" fill-opacity="1"><g transform="translate(54.419035, 27.169821)"><g><path d="M 2.375 -15.421875 L 5.984375 -15.421875 L 5.984375 0 L 2.375 0 Z M 4.1875 -17.96875 C 3.53125 -17.96875 2.976562 -18.175781 2.53125 -18.59375 C 2.09375 -19.007812 1.875 -19.523438 1.875 -20.140625 C 1.875 -20.753906 2.09375 -21.265625 2.53125 -21.671875 C 2.976562 -22.085938 3.53125 -22.296875 4.1875 -22.296875 C 4.84375 -22.296875 5.390625 -22.097656 5.828125 -21.703125 C 6.273438 -21.316406 6.5 -20.820312 6.5 -20.21875 C 6.5 -19.582031 6.28125 -19.046875 5.84375 -18.609375 C 5.414062 -18.179688 4.863281 -17.96875 4.1875 -17.96875 Z M 4.1875 -17.96875 "/></g></g></g><g fill="#1a3f64" fill-opacity="1"><g transform="translate(62.766679, 27.169821)"><g><path d="M 8.265625 -15.59375 C 10.535156 -15.59375 12.269531 -15.050781 13.46875 -13.96875 C 14.675781 -12.882812 15.28125 -11.242188 15.28125 -9.046875 L 15.28125 0 L 11.875 0 L 11.875 -1.875 C 11.425781 -1.195312 10.789062 -0.679688 9.96875 -0.328125 C 9.15625 0.0234375 8.171875 0.203125 7.015625 0.203125 C 5.859375 0.203125 4.847656 0.00390625 3.984375 -0.390625 C 3.117188 -0.785156 2.445312 -1.332031 1.96875 -2.03125 C 1.5 -2.738281 1.265625 -3.535156 1.265625 -4.421875 C 1.265625 -5.804688 1.78125 -6.914062 2.8125 -7.75 C 3.84375 -8.59375 5.46875 -9.015625 7.6875 -9.015625 L 11.671875 -9.015625 L 11.671875 -9.25 C 11.671875 -10.320312 11.347656 -11.144531 10.703125 -11.71875 C 10.054688 -12.300781 9.097656 -12.59375 7.828125 -12.59375 C 6.960938 -12.59375 6.109375 -12.457031 5.265625 -12.1875 C 4.429688 -11.914062 3.726562 -11.539062 3.15625 -11.0625 L 1.734375 -13.6875 C 2.546875 -14.3125 3.519531 -14.785156 4.65625 -15.109375 C 5.789062 -15.429688 6.992188 -15.59375 8.265625 -15.59375 Z M 7.765625 -2.421875 C 8.671875 -2.421875 9.472656 -2.628906 10.171875 -3.046875 C 10.878906 -3.460938 11.378906 -4.054688 11.671875 -4.828125 L 11.671875 -6.609375 L 7.9375 -6.609375 C 5.863281 -6.609375 4.828125 -5.925781 4.828125 -4.5625 C 4.828125 -3.90625 5.085938 -3.382812 5.609375 -3 C 6.128906 -2.613281 6.847656 -2.421875 7.765625 -2.421875 Z M 7.765625 -2.421875 "/></g></g></g><g fill="#1a3f64" fill-opacity="1"><g transform="translate(80.2996, 27.169821)"><g><path d="M 2.375 -21.4375 L 5.984375 -21.4375 L 5.984375 0 L 2.375 0 Z M 2.375 -21.4375 "/></g></g></g><g fill="#1a3f64" fill-opacity="1"><g transform="translate(88.647244, 27.169821)"><g/></g></g><g fill="#1a3f64" fill-opacity="1"><g transform="translate(96.619384, 27.169821)"><g><path d="M 11.03125 -20.21875 C 12.789062 -20.21875 14.316406 -19.925781 15.609375 -19.34375 C 16.910156 -18.769531 17.90625 -17.941406 18.59375 -16.859375 C 19.289062 -15.785156 19.640625 -14.507812 19.640625 -13.03125 C 19.640625 -11.5625 19.289062 -10.28125 18.59375 -9.1875 C 17.90625 -8.101562 16.910156 -7.269531 15.609375 -6.6875 C 14.316406 -6.113281 12.789062 -5.828125 11.03125 -5.828125 L 6.46875 -5.828125 L 6.46875 0 L 2.71875 0 L 2.71875 -20.21875 Z M 10.859375 -9.015625 C 12.492188 -9.015625 13.734375 -9.359375 14.578125 -10.046875 C 15.429688 -10.742188 15.859375 -11.738281 15.859375 -13.03125 C 15.859375 -14.320312 15.429688 -15.3125 14.578125 -16 C 13.734375 -16.695312 12.492188 -17.046875 10.859375 -17.046875 L 6.46875 -17.046875 L 6.46875 -9.015625 Z M 10.859375 -9.015625 "/></g></g></g><g fill="#1a3f64" fill-opacity="1"><g transform="translate(117.15627, 27.169821)"><g><path d="M 5.8125 -13.171875 C 6.84375 -14.785156 8.671875 -15.59375 11.296875 -15.59375 L 11.296875 -12.15625 C 10.984375 -12.21875 10.703125 -12.25 10.453125 -12.25 C 9.046875 -12.25 7.945312 -11.835938 7.15625 -11.015625 C 6.375 -10.203125 5.984375 -9.023438 5.984375 -7.484375 L 5.984375 0 L 2.375 0 L 2.375 -15.421875 L 5.8125 -15.421875 Z M 5.8125 -13.171875 "/></g></g></g><g fill="#1a3f64" fill-opacity="1"><g transform="translate(128.99892, 27.169821)"><g><path d="M 9.296875 0.203125 C 7.742188 0.203125 6.335938 -0.128906 5.078125 -0.796875 C 3.828125 -1.472656 2.847656 -2.414062 2.140625 -3.625 C 1.441406 -4.832031 1.09375 -6.195312 1.09375 -7.71875 C 1.09375 -9.238281 1.441406 -10.59375 2.140625 -11.78125 C 2.847656 -12.976562 3.828125 -13.910156 5.078125 -14.578125 C 6.335938 -15.253906 7.742188 -15.59375 9.296875 -15.59375 C 10.878906 -15.59375 12.296875 -15.253906 13.546875 -14.578125 C 14.796875 -13.910156 15.769531 -12.976562 16.46875 -11.78125 C 17.175781 -10.59375 17.53125 -9.238281 17.53125 -7.71875 C 17.53125 -6.195312 17.175781 -4.832031 16.46875 -3.625 C 15.769531 -2.414062 14.796875 -1.472656 13.546875 -0.796875 C 12.296875 -0.128906 10.878906 0.203125 9.296875 0.203125 Z M 9.296875 -2.890625 C 10.628906 -2.890625 11.726562 -3.332031 12.59375 -4.21875 C 13.457031 -5.101562 13.890625 -6.269531 13.890625 -7.71875 C 13.890625 -9.15625 13.457031 -10.316406 12.59375 -11.203125 C 11.726562 -12.085938 10.628906 -12.53125 9.296875 -12.53125 C 7.972656 -12.53125 6.878906 -12.085938 6.015625 -11.203125 C 5.160156 -10.316406 4.734375 -9.15625 4.734375 -7.71875 C 4.734375 -6.269531 5.160156 -5.101562 6.015625 -4.21875 C 6.878906 -3.332031 7.972656 -2.890625 9.296875 -2.890625 Z M 9.296875 -2.890625 "/></g></g></g><g fill="#1a3f64" fill-opacity="1"><g transform="translate(147.629457, 27.169821)"><g><path d="M 9.296875 0.203125 C 7.742188 0.203125 6.335938 -0.128906 5.078125 -0.796875 C 3.828125 -1.472656 2.847656 -2.414062 2.140625 -3.625 C 1.441406 -4.832031 1.09375 -6.195312 1.09375 -7.71875 C 1.09375 -9.238281 1.441406 -10.59375 2.140625 -11.78125 C 2.847656 -12.976562 3.828125 -13.910156 5.078125 -14.578125 C 6.335938 -15.253906 7.742188 -15.59375 9.296875 -15.59375 C 10.878906 -15.59375 12.296875 -15.253906 13.546875 -14.578125 C 14.796875 -13.910156 15.769531 -12.976562 16.46875 -11.78125 C 17.175781 -10.59375 17.53125 -9.238281 17.53125 -7.71875 C 17.53125 -6.195312 17.175781 -4.832031 16.46875 -3.625 C 15.769531 -2.414062 14.796875 -1.472656 13.546875 -0.796875 C 12.296875 -0.128906 10.878906 0.203125 9.296875 0.203125 Z M 9.296875 -2.890625 C 10.628906 -2.890625 11.726562 -3.332031 12.59375 -4.21875 C 13.457031 -5.101562 13.890625 -6.269531 13.890625 -7.71875 C 13.890625 -9.15625 13.457031 -10.316406 12.59375 -11.203125 C 11.726562 -12.085938 10.628906 -12.53125 9.296875 -12.53125 C 7.972656 -12.53125 6.878906 -12.085938 6.015625 -11.203125 C 5.160156 -10.316406 4.734375 -9.15625 4.734375 -7.71875 C 4.734375 -6.269531 5.160156 -5.101562 6.015625 -4.21875 C 6.878906 -3.332031 7.972656 -2.890625 9.296875 -2.890625 Z M 9.296875 -2.890625 "/></g></g></g><g fill="#1a3f64" fill-opacity="1"><g transform="translate(166.259994, 27.169821)"><g><path d="M 8.640625 -18.71875 C 7.117188 -18.71875 6.359375 -17.890625 6.359375 -16.234375 L 6.359375 -15.3125 L 10.609375 -15.3125 L 10.609375 -12.421875 L 6.46875 -12.421875 L 6.46875 0 L 2.859375 0 L 2.859375 -12.421875 L 0.3125 -12.421875 L 0.3125 -15.3125 L 2.859375 -15.3125 L 2.859375 -16.296875 C 2.859375 -17.953125 3.335938 -19.253906 4.296875 -20.203125 C 5.265625 -21.160156 6.625 -21.640625 8.375 -21.640625 C 9.757812 -21.640625 10.847656 -21.359375 11.640625 -20.796875 L 10.625 -18.078125 C 10.007812 -18.503906 9.347656 -18.71875 8.640625 -18.71875 Z M 8.640625 -18.71875 "/></g></g></g><g fill="#1a3f64" fill-opacity="1"><g transform="translate(176.629523, 27.169821)"><g><path d="M 3.546875 -4.59375 C 4.222656 -4.59375 4.78125 -4.367188 5.21875 -3.921875 C 5.664062 -3.484375 5.890625 -2.910156 5.890625 -2.203125 C 5.890625 -1.890625 5.847656 -1.5625 5.765625 -1.21875 C 5.679688 -0.882812 5.503906 -0.382812 5.234375 0.28125 L 3.75 4.359375 L 1.421875 4.359375 L 2.578125 -0.0625 C 2.148438 -0.226562 1.816406 -0.5 1.578125 -0.875 C 1.335938 -1.25 1.21875 -1.691406 1.21875 -2.203125 C 1.21875 -2.910156 1.4375 -3.484375 1.875 -3.921875 C 2.320312 -4.367188 2.878906 -4.59375 3.546875 -4.59375 Z M 3.546875 -4.59375 "/></g></g></g><g fill="#1a3f64" fill-opacity="1"><g transform="translate(183.677349, 27.169821)"><g/></g></g><g fill="#1a3f64" fill-opacity="1"><g transform="translate(191.649488, 27.169821)"><g><path d="M 6.46875 -17.078125 L 6.46875 -10.921875 L 16.234375 -10.921875 L 16.234375 -7.75 L 6.46875 -7.75 L 6.46875 0 L 2.71875 0 L 2.71875 -20.21875 L 17.484375 -20.21875 L 17.484375 -17.078125 Z M 6.46875 -17.078125 "/></g></g></g><g fill="#1a3f64" fill-opacity="1"><g transform="translate(209.557883, 27.169821)"><g><path d="M 8.265625 -15.59375 C 10.535156 -15.59375 12.269531 -15.050781 13.46875 -13.96875 C 14.675781 -12.882812 15.28125 -11.242188 15.28125 -9.046875 L 15.28125 0 L 11.875 0 L 11.875 -1.875 C 11.425781 -1.195312 10.789062 -0.679688 9.96875 -0.328125 C 9.15625 0.0234375 8.171875 0.203125 7.015625 0.203125 C 5.859375 0.203125 4.847656 0.00390625 3.984375 -0.390625 C 3.117188 -0.785156 2.445312 -1.332031 1.96875 -2.03125 C 1.5 -2.738281 1.265625 -3.535156 1.265625 -4.421875 C 1.265625 -5.804688 1.78125 -6.914062 2.8125 -7.75 C 3.84375 -8.59375 5.46875 -9.015625 7.6875 -9.015625 L 11.671875 -9.015625 L 11.671875 -9.25 C 11.671875 -10.320312 11.347656 -11.144531 10.703125 -11.71875 C 10.054688 -12.300781 9.097656 -12.59375 7.828125 -12.59375 C 6.960938 -12.59375 6.109375 -12.457031 5.265625 -12.1875 C 4.429688 -11.914062 3.726562 -11.539062 3.15625 -11.0625 L 1.734375 -13.6875 C 2.546875 -14.3125 3.519531 -14.785156 4.65625 -15.109375 C 5.789062 -15.429688 6.992188 -15.59375 8.265625 -15.59375 Z M 7.765625 -2.421875 C 8.671875 -2.421875 9.472656 -2.628906 10.171875 -3.046875 C 10.878906 -3.460938 11.378906 -4.054688 11.671875 -4.828125 L 11.671875 -6.609375 L 7.9375 -6.609375 C 5.863281 -6.609375 4.828125 -5.925781 4.828125 -4.5625 C 4.828125 -3.90625 5.085938 -3.382812 5.609375 -3 C 6.128906 -2.613281 6.847656 -2.421875 7.765625 -2.421875 Z M 7.765625 -2.421875 "/></g></g></g><g fill="#1a3f64" fill-opacity="1"><g transform="translate(227.090804, 27.169821)"><g><path d="M 7.140625 0.203125 C 5.890625 0.203125 4.664062 0.0390625 3.46875 -0.28125 C 2.269531 -0.613281 1.316406 -1.03125 0.609375 -1.53125 L 2 -4.28125 C 2.6875 -3.8125 3.515625 -3.4375 4.484375 -3.15625 C 5.460938 -2.882812 6.421875 -2.75 7.359375 -2.75 C 9.523438 -2.75 10.609375 -3.316406 10.609375 -4.453125 C 10.609375 -4.992188 10.332031 -5.367188 9.78125 -5.578125 C 9.226562 -5.785156 8.347656 -5.988281 7.140625 -6.1875 C 5.867188 -6.375 4.832031 -6.59375 4.03125 -6.84375 C 3.226562 -7.09375 2.53125 -7.53125 1.9375 -8.15625 C 1.351562 -8.78125 1.0625 -9.65625 1.0625 -10.78125 C 1.0625 -12.238281 1.671875 -13.40625 2.890625 -14.28125 C 4.117188 -15.15625 5.773438 -15.59375 7.859375 -15.59375 C 8.921875 -15.59375 9.976562 -15.472656 11.03125 -15.234375 C 12.09375 -14.992188 12.960938 -14.671875 13.640625 -14.265625 L 12.25 -11.53125 C 10.9375 -12.300781 9.460938 -12.6875 7.828125 -12.6875 C 6.765625 -12.6875 5.957031 -12.523438 5.40625 -12.203125 C 4.863281 -11.890625 4.59375 -11.472656 4.59375 -10.953125 C 4.59375 -10.367188 4.882812 -9.957031 5.46875 -9.71875 C 6.0625 -9.476562 6.972656 -9.253906 8.203125 -9.046875 C 9.429688 -8.847656 10.441406 -8.625 11.234375 -8.375 C 12.023438 -8.125 12.703125 -7.703125 13.265625 -7.109375 C 13.835938 -6.515625 14.125 -5.664062 14.125 -4.5625 C 14.125 -3.113281 13.5 -1.957031 12.25 -1.09375 C 11 -0.226562 9.296875 0.203125 7.140625 0.203125 Z M 7.140625 0.203125 "/></g></g></g><g fill="#1a3f64" fill-opacity="1"><g transform="translate(241.966349, 27.169821)"><g><path d="M 11.640625 -0.84375 C 11.210938 -0.488281 10.695312 -0.222656 10.09375 -0.046875 C 9.488281 0.117188 8.847656 0.203125 8.171875 0.203125 C 6.484375 0.203125 5.175781 -0.238281 4.25 -1.125 C 3.320312 -2.007812 2.859375 -3.300781 2.859375 -5 L 2.859375 -12.421875 L 0.3125 -12.421875 L 0.3125 -15.3125 L 2.859375 -15.3125 L 2.859375 -18.84375 L 6.46875 -18.84375 L 6.46875 -15.3125 L 10.609375 -15.3125 L 10.609375 -12.421875 L 6.46875 -12.421875 L 6.46875 -5.078125 C 6.46875 -4.328125 6.648438 -3.753906 7.015625 -3.359375 C 7.378906 -2.972656 7.910156 -2.78125 8.609375 -2.78125 C 9.421875 -2.78125 10.09375 -2.988281 10.625 -3.40625 Z M 11.640625 -0.84375 "/></g></g></g></g></g></svg>