<svg xmlns="http://www.w3.org/2000/svg" xmlns:xlink="http://www.w3.org/1999/xlink" width="512" zoomAndPan="magnify" viewBox="0 0 384 383.999986" height="512" preserveAspectRatio="xMidYMid meet" version="1.0"><defs><g/><clipPath id="0ab2bfd7b2"><path d="M 0.839844 191 L 378.359375 191 L 378.359375 306 L 0.839844 306 Z M 0.839844 191 " clip-rule="nonzero"/></clipPath><clipPath id="79c7ba53a7"><rect x="0" width="379" y="0" height="115"/></clipPath><clipPath id="4ce2a605b3"><path d="M 23 294 L 347 294 L 347 338.800781 L 23 338.800781 Z M 23 294 " clip-rule="nonzero"/></clipPath><clipPath id="ad597b5ea8"><rect x="0" width="324" y="0" height="45"/></clipPath><clipPath id="c8f2e446a7"><rect x="0" width="379" y="0" height="339"/></clipPath></defs><g transform="matrix(1, 0, 0, 1, 3, 26)"><g clip-path="url(#c8f2e446a7)"><path fill="#ffffff" d="M 205.109375 204.636719 C 161.761719 213.660156 118.628906 194.261719 97.300781 155.867188 C 73.527344 113.078125 83.554688 57.453125 123.945312 26.625 C 140.359375 14.09375 158.839844 7.390625 179.617188 6.578125 C 201.816406 5.707031 221.933594 11.371094 240.042969 24.15625 C 245.359375 27.910156 245.339844 28.207031 240.976562 32.660156 C 235.980469 37.753906 231.195312 43.125 225.738281 47.675781 C 220.386719 52.136719 220.300781 57.375 221.464844 63.859375 C 224.8125 62.242188 226.777344 59.515625 229.03125 57.28125 C 239.75 46.640625 250.210938 35.742188 261.03125 25.210938 C 264.363281 21.964844 263.945312 19.945312 260.582031 17.394531 C 258.347656 15.699219 256.34375 13.675781 254.367188 11.671875 C 252.136719 9.410156 252.238281 7.378906 255.691406 6.820312 C 266.960938 4.996094 278.261719 3.351562 289.554688 1.648438 C 292.253906 1.242188 294.464844 1.75 293.804688 5.160156 C 291.460938 17.347656 288.988281 29.507812 286.535156 41.671875 C 286.480469 41.945312 286.109375 42.152344 285.421875 42.886719 C 279.828125 40.746094 278.054688 34.472656 274.925781 31.980469 C 260.480469 45.605469 246.238281 59.035156 231.511719 72.933594 C 238.777344 74.226562 244.148438 73.621094 248.84375 68.152344 C 254.089844 62.042969 259.621094 56.050781 266.8125 50.523438 C 282.804688 74.84375 288.019531 100.890625 281.453125 128.550781 C 271.828125 169.117188 245.507812 193.882812 205.109375 204.636719 M 216.457031 112.640625 C 222.980469 107.261719 229.515625 101.898438 236.015625 96.484375 C 237.132812 95.554688 238.605469 94.589844 238.167969 92.859375 C 237.644531 90.78125 235.710938 90.933594 234.085938 90.824219 C 224.664062 90.199219 215.246094 89.433594 205.8125 89.078125 C 201.542969 88.914062 199.1875 87.214844 197.78125 83.195312 C 194.824219 74.753906 191.582031 66.410156 188.324219 58.074219 C 187.574219 56.160156 187.089844 53.441406 184.492188 53.371094 C 181.792969 53.296875 181.390625 56.082031 180.65625 57.984375 C 177.269531 66.800781 173.957031 75.648438 170.78125 84.542969 C 169.707031 87.5625 168.136719 89.007812 164.699219 89.132812 C 155.101562 89.472656 145.519531 90.210938 135.933594 90.839844 C 134.023438 90.964844 131.628906 90.453125 130.75 92.820312 C 129.835938 95.269531 132.066406 96.277344 133.539062 97.523438 C 140.5 103.410156 147.394531 109.386719 154.476562 115.125 C 158.023438 117.996094 159.066406 121.027344 157.660156 125.523438 C 154.996094 134.054688 152.777344 142.726562 150.585938 151.390625 C 150.15625 153.085938 148.492188 155.375 150.929688 156.785156 C 152.960938 157.960938 154.714844 156.398438 156.363281 155.316406 C 164.398438 150.039062 172.484375 144.828125 180.421875 139.398438 C 183.253906 137.460938 185.585938 137.214844 188.515625 139.246094 C 196.417969 144.71875 204.472656 149.96875 212.480469 155.289062 C 213.96875 156.277344 215.496094 157.855469 217.398438 156.644531 C 219.429688 155.351562 218.320312 153.441406 217.839844 151.707031 C 215.703125 144.054688 214.203125 136.148438 211.3125 128.796875 C 208.578125 121.839844 209.3125 116.855469 216.457031 112.640625 Z M 216.457031 112.640625 " fill-opacity="1" fill-rule="nonzero"/><g clip-path="url(#0ab2bfd7b2)"><g transform="matrix(1, 0, 0, 1, 0.000000000000000444, 191)"><g clip-path="url(#79c7ba53a7)"><g fill="#ffffff" fill-opacity="1"><g transform="translate(3.57198, 90.754705)"><g><path d="M 72.765625 -65.296875 L 44.78125 0 L 26.578125 0 L -1.3125 -65.296875 L 18.65625 -65.296875 L 36.375 -22.765625 L 54.46875 -65.296875 Z M 72.765625 -65.296875 "/></g></g></g><g fill="#ffffff" fill-opacity="1"><g transform="translate(69.880663, 90.754705)"><g><path d="M 31.0625 0.84375 C 25.65625 0.84375 20.773438 -0.273438 16.421875 -2.515625 C 12.066406 -4.753906 8.660156 -7.863281 6.203125 -11.84375 C 3.742188 -15.820312 2.515625 -20.332031 2.515625 -25.375 C 2.515625 -30.34375 3.742188 -34.816406 6.203125 -38.796875 C 8.660156 -42.785156 12.050781 -45.878906 16.375 -48.078125 C 20.695312 -50.285156 25.59375 -51.390625 31.0625 -51.390625 C 36.53125 -51.390625 41.441406 -50.285156 45.796875 -48.078125 C 50.148438 -45.878906 53.539062 -42.800781 55.96875 -38.84375 C 58.394531 -34.894531 59.609375 -30.40625 59.609375 -25.375 C 59.609375 -20.332031 58.394531 -15.820312 55.96875 -11.84375 C 53.539062 -7.863281 50.148438 -4.753906 45.796875 -2.515625 C 41.441406 -0.273438 36.53125 0.84375 31.0625 0.84375 Z M 31.0625 -13.25 C 34.175781 -13.25 36.726562 -14.320312 38.71875 -16.46875 C 40.707031 -18.613281 41.703125 -21.582031 41.703125 -25.375 C 41.703125 -29.101562 40.707031 -32.023438 38.71875 -34.140625 C 36.726562 -36.253906 34.175781 -37.3125 31.0625 -37.3125 C 27.957031 -37.3125 25.40625 -36.253906 23.40625 -34.140625 C 21.414062 -32.023438 20.421875 -29.101562 20.421875 -25.375 C 20.421875 -21.582031 21.414062 -18.613281 23.40625 -16.46875 C 25.40625 -14.320312 27.957031 -13.25 31.0625 -13.25 Z M 31.0625 -13.25 "/></g></g></g><g fill="#ffffff" fill-opacity="1"><g transform="translate(131.993472, 90.754705)"><g><path d="M 58.859375 -50.5625 L 58.859375 0 L 41.984375 0 L 41.984375 -5.40625 C 40.109375 -3.351562 37.863281 -1.796875 35.25 -0.734375 C 32.644531 0.316406 29.878906 0.84375 26.953125 0.84375 C 20.421875 0.84375 15.210938 -1.082031 11.328125 -4.9375 C 7.441406 -8.800781 5.5 -14.585938 5.5 -22.296875 L 5.5 -50.5625 L 23.234375 -50.5625 L 23.234375 -25.1875 C 23.234375 -21.394531 23.945312 -18.625 25.375 -16.875 C 26.800781 -15.132812 28.882812 -14.265625 31.625 -14.265625 C 34.414062 -14.265625 36.695312 -15.242188 38.46875 -17.203125 C 40.25 -19.171875 41.140625 -22.175781 41.140625 -26.21875 L 41.140625 -50.5625 Z M 58.859375 -50.5625 "/></g></g></g><g fill="#ffffff" fill-opacity="1"><g transform="translate(196.531116, 90.754705)"><g><path d="M 31.53125 0.84375 C 25.9375 0.84375 20.929688 -0.273438 16.515625 -2.515625 C 12.097656 -4.753906 8.660156 -7.863281 6.203125 -11.84375 C 3.742188 -15.820312 2.515625 -20.332031 2.515625 -25.375 C 2.515625 -30.40625 3.742188 -34.894531 6.203125 -38.84375 C 8.660156 -42.800781 12.097656 -45.878906 16.515625 -48.078125 C 20.929688 -50.285156 25.9375 -51.390625 31.53125 -51.390625 C 37.25 -51.390625 42.191406 -50.160156 46.359375 -47.703125 C 50.523438 -45.253906 53.476562 -41.851562 55.21875 -37.5 L 41.515625 -30.5 C 39.210938 -35.039062 35.851562 -37.3125 31.4375 -37.3125 C 28.257812 -37.3125 25.628906 -36.253906 23.546875 -34.140625 C 21.460938 -32.023438 20.421875 -29.101562 20.421875 -25.375 C 20.421875 -21.582031 21.460938 -18.613281 23.546875 -16.46875 C 25.628906 -14.320312 28.257812 -13.25 31.4375 -13.25 C 35.851562 -13.25 39.210938 -15.519531 41.515625 -20.0625 L 55.21875 -13.0625 C 53.476562 -8.707031 50.523438 -5.300781 46.359375 -2.84375 C 42.191406 -0.382812 37.25 0.84375 31.53125 0.84375 Z M 31.53125 0.84375 "/></g></g></g><g fill="#ffffff" fill-opacity="1"><g transform="translate(252.581839, 90.754705)"><g><path d="M 38.625 -51.390625 C 44.90625 -51.390625 49.957031 -49.523438 53.78125 -45.796875 C 57.601562 -42.066406 59.515625 -36.441406 59.515625 -28.921875 L 59.515625 0 L 41.796875 0 L 41.796875 -26.03125 C 41.796875 -32.925781 39.023438 -36.375 33.484375 -36.375 C 30.441406 -36.375 28 -35.378906 26.15625 -33.390625 C 24.320312 -31.398438 23.40625 -28.414062 23.40625 -24.4375 L 23.40625 0 L 5.6875 0 L 5.6875 -69.21875 L 23.40625 -69.21875 L 23.40625 -45.890625 C 25.34375 -47.691406 27.613281 -49.054688 30.21875 -49.984375 C 32.832031 -50.921875 35.632812 -51.390625 38.625 -51.390625 Z M 38.625 -51.390625 "/></g></g></g><g fill="#ffffff" fill-opacity="1"><g transform="translate(316.559736, 90.754705)"><g><path d="M 58.953125 -50.5625 L 37.125 2.046875 C 34.570312 8.265625 31.460938 12.632812 27.796875 15.15625 C 24.128906 17.675781 19.648438 18.9375 14.359375 18.9375 C 11.691406 18.9375 9.003906 18.515625 6.296875 17.671875 C 3.585938 16.835938 1.394531 15.734375 -0.28125 14.359375 L 5.875 1.953125 C 6.875 2.890625 8.070312 3.617188 9.46875 4.140625 C 10.863281 4.671875 12.28125 4.9375 13.71875 4.9375 C 15.394531 4.9375 16.773438 4.59375 17.859375 3.90625 C 18.953125 3.226562 19.867188 2.144531 20.609375 0.65625 L -1.03125 -50.5625 L 17.15625 -50.5625 L 29.5625 -19.6875 L 42.0625 -50.5625 Z M 58.953125 -50.5625 "/></g></g></g></g></g></g><g clip-path="url(#4ce2a605b3)"><g transform="matrix(1, 0, 0, 1, 23, 294)"><g clip-path="url(#ad597b5ea8)"><g fill="#ffffff" fill-opacity="1"><g transform="translate(0.901679, 34.571672)"><g><path d="M 11.390625 0.359375 C 9.410156 0.359375 7.5 0.0820312 5.65625 -0.46875 C 3.8125 -1.03125 2.351562 -1.78125 1.28125 -2.71875 L 2.9375 -6.40625 C 3.976562 -5.582031 5.265625 -4.90625 6.796875 -4.375 C 8.328125 -3.851562 9.859375 -3.59375 11.390625 -3.59375 C 13.296875 -3.59375 14.71875 -3.894531 15.65625 -4.5 C 16.601562 -5.113281 17.078125 -5.921875 17.078125 -6.921875 C 17.078125 -7.660156 16.8125 -8.265625 16.28125 -8.734375 C 15.757812 -9.210938 15.09375 -9.585938 14.28125 -9.859375 C 13.476562 -10.128906 12.382812 -10.429688 11 -10.765625 C 9.039062 -11.234375 7.457031 -11.695312 6.25 -12.15625 C 5.039062 -12.625 4 -13.351562 3.125 -14.34375 C 2.257812 -15.332031 1.828125 -16.671875 1.828125 -18.359375 C 1.828125 -19.773438 2.210938 -21.0625 2.984375 -22.21875 C 3.753906 -23.382812 4.914062 -24.304688 6.46875 -24.984375 C 8.019531 -25.671875 9.921875 -26.015625 12.171875 -26.015625 C 13.734375 -26.015625 15.269531 -25.816406 16.78125 -25.421875 C 18.289062 -25.035156 19.597656 -24.476562 20.703125 -23.75 L 19.203125 -20.046875 C 18.078125 -20.703125 16.898438 -21.203125 15.671875 -21.546875 C 14.453125 -21.890625 13.269531 -22.0625 12.125 -22.0625 C 10.25 -22.0625 8.851562 -21.742188 7.9375 -21.109375 C 7.019531 -20.472656 6.5625 -19.628906 6.5625 -18.578125 C 6.5625 -17.847656 6.820312 -17.25 7.34375 -16.78125 C 7.875 -16.3125 8.539062 -15.941406 9.34375 -15.671875 C 10.144531 -15.410156 11.242188 -15.109375 12.640625 -14.765625 C 14.546875 -14.328125 16.109375 -13.867188 17.328125 -13.390625 C 18.546875 -12.910156 19.585938 -12.179688 20.453125 -11.203125 C 21.328125 -10.234375 21.765625 -8.914062 21.765625 -7.25 C 21.765625 -5.832031 21.378906 -4.550781 20.609375 -3.40625 C 19.835938 -2.257812 18.671875 -1.34375 17.109375 -0.65625 C 15.546875 0.0195312 13.640625 0.359375 11.390625 0.359375 Z M 11.390625 0.359375 "/></g></g></g><g fill="#ffffff" fill-opacity="1"><g transform="translate(23.946607, 34.571672)"><g><path d="M 11.796875 0.25 C 9.816406 0.25 8.03125 -0.175781 6.4375 -1.03125 C 4.851562 -1.882812 3.613281 -3.070312 2.71875 -4.59375 C 1.832031 -6.125 1.390625 -7.851562 1.390625 -9.78125 C 1.390625 -11.707031 1.832031 -13.425781 2.71875 -14.9375 C 3.613281 -16.457031 4.851562 -17.644531 6.4375 -18.5 C 8.03125 -19.351562 9.816406 -19.78125 11.796875 -19.78125 C 13.796875 -19.78125 15.585938 -19.351562 17.171875 -18.5 C 18.765625 -17.644531 20.003906 -16.457031 20.890625 -14.9375 C 21.785156 -13.425781 22.234375 -11.707031 22.234375 -9.78125 C 22.234375 -7.851562 21.785156 -6.125 20.890625 -4.59375 C 20.003906 -3.070312 18.765625 -1.882812 17.171875 -1.03125 C 15.585938 -0.175781 13.796875 0.25 11.796875 0.25 Z M 11.796875 -3.671875 C 13.484375 -3.671875 14.875 -4.226562 15.96875 -5.34375 C 17.070312 -6.46875 17.625 -7.945312 17.625 -9.78125 C 17.625 -11.613281 17.070312 -13.09375 15.96875 -14.21875 C 14.875 -15.34375 13.484375 -15.90625 11.796875 -15.90625 C 10.109375 -15.90625 8.722656 -15.34375 7.640625 -14.21875 C 6.554688 -13.09375 6.015625 -11.613281 6.015625 -9.78125 C 6.015625 -7.945312 6.554688 -6.46875 7.640625 -5.34375 C 8.722656 -4.226562 10.109375 -3.671875 11.796875 -3.671875 Z M 11.796875 -3.671875 "/></g></g></g><g fill="#ffffff" fill-opacity="1"><g transform="translate(47.577739, 34.571672)"><g><path d="M 11.984375 0.25 C 9.953125 0.25 8.128906 -0.175781 6.515625 -1.03125 C 4.910156 -1.882812 3.65625 -3.070312 2.75 -4.59375 C 1.84375 -6.125 1.390625 -7.851562 1.390625 -9.78125 C 1.390625 -11.707031 1.84375 -13.425781 2.75 -14.9375 C 3.65625 -16.457031 4.90625 -17.644531 6.5 -18.5 C 8.101562 -19.351562 9.929688 -19.78125 11.984375 -19.78125 C 13.910156 -19.78125 15.597656 -19.390625 17.046875 -18.609375 C 18.503906 -17.828125 19.597656 -16.707031 20.328125 -15.25 L 16.8125 -13.1875 C 16.25 -14.09375 15.546875 -14.769531 14.703125 -15.21875 C 13.867188 -15.675781 12.945312 -15.90625 11.9375 -15.90625 C 10.226562 -15.90625 8.8125 -15.347656 7.6875 -14.234375 C 6.570312 -13.117188 6.015625 -11.632812 6.015625 -9.78125 C 6.015625 -7.925781 6.566406 -6.441406 7.671875 -5.328125 C 8.785156 -4.222656 10.207031 -3.671875 11.9375 -3.671875 C 12.945312 -3.671875 13.867188 -3.894531 14.703125 -4.34375 C 15.546875 -4.789062 16.25 -5.46875 16.8125 -6.375 L 20.328125 -4.328125 C 19.578125 -2.859375 18.472656 -1.726562 17.015625 -0.9375 C 15.566406 -0.144531 13.890625 0.25 11.984375 0.25 Z M 11.984375 0.25 "/></g></g></g><g fill="#ffffff" fill-opacity="1"><g transform="translate(68.864075, 34.571672)"><g><path d="M 3 -19.5625 L 7.578125 -19.5625 L 7.578125 0 L 3 0 Z M 5.3125 -22.796875 C 4.488281 -22.796875 3.796875 -23.054688 3.234375 -23.578125 C 2.671875 -24.097656 2.390625 -24.75 2.390625 -25.53125 C 2.390625 -26.320312 2.671875 -26.976562 3.234375 -27.5 C 3.796875 -28.019531 4.488281 -28.28125 5.3125 -28.28125 C 6.144531 -28.28125 6.84375 -28.03125 7.40625 -27.53125 C 7.96875 -27.03125 8.25 -26.40625 8.25 -25.65625 C 8.25 -24.84375 7.972656 -24.160156 7.421875 -23.609375 C 6.878906 -23.066406 6.175781 -22.796875 5.3125 -22.796875 Z M 5.3125 -22.796875 "/></g></g></g><g fill="#ffffff" fill-opacity="1"><g transform="translate(79.452299, 34.571672)"><g><path d="M 10.484375 -19.78125 C 13.359375 -19.78125 15.5625 -19.085938 17.09375 -17.703125 C 18.625 -16.328125 19.390625 -14.25 19.390625 -11.46875 L 19.390625 0 L 15.0625 0 L 15.0625 -2.375 C 14.5 -1.519531 13.695312 -0.867188 12.65625 -0.421875 C 11.625 0.0234375 10.375 0.25 8.90625 0.25 C 7.4375 0.25 6.148438 0 5.046875 -0.5 C 3.953125 -1 3.101562 -1.691406 2.5 -2.578125 C 1.90625 -3.472656 1.609375 -4.484375 1.609375 -5.609375 C 1.609375 -7.367188 2.257812 -8.78125 3.5625 -9.84375 C 4.875 -10.90625 6.9375 -11.4375 9.75 -11.4375 L 14.796875 -11.4375 L 14.796875 -11.71875 C 14.796875 -13.09375 14.382812 -14.144531 13.5625 -14.875 C 12.75 -15.601562 11.535156 -15.96875 9.921875 -15.96875 C 8.828125 -15.96875 7.75 -15.796875 6.6875 -15.453125 C 5.625 -15.117188 4.726562 -14.644531 4 -14.03125 L 2.203125 -17.375 C 3.222656 -18.15625 4.453125 -18.75 5.890625 -19.15625 C 7.335938 -19.570312 8.867188 -19.78125 10.484375 -19.78125 Z M 9.859375 -3.078125 C 11.003906 -3.078125 12.019531 -3.335938 12.90625 -3.859375 C 13.800781 -4.390625 14.429688 -5.144531 14.796875 -6.125 L 14.796875 -8.390625 L 10.078125 -8.390625 C 7.441406 -8.390625 6.125 -7.523438 6.125 -5.796875 C 6.125 -4.960938 6.453125 -4.300781 7.109375 -3.8125 C 7.765625 -3.320312 8.679688 -3.078125 9.859375 -3.078125 Z M 9.859375 -3.078125 "/></g></g></g><g fill="#ffffff" fill-opacity="1"><g transform="translate(101.691205, 34.571672)"><g><path d="M 3 -27.1875 L 7.578125 -27.1875 L 7.578125 0 L 3 0 Z M 3 -27.1875 "/></g></g></g><g fill="#ffffff" fill-opacity="1"><g transform="translate(112.279428, 34.571672)"><g/></g></g><g fill="#ffffff" fill-opacity="1"><g transform="translate(122.391357, 34.571672)"><g><path d="M 14 -25.65625 C 16.21875 -25.65625 18.148438 -25.285156 19.796875 -24.546875 C 21.453125 -23.816406 22.71875 -22.765625 23.59375 -21.390625 C 24.476562 -20.023438 24.921875 -18.40625 24.921875 -16.53125 C 24.921875 -14.664062 24.476562 -13.039062 23.59375 -11.65625 C 22.71875 -10.28125 21.453125 -9.226562 19.796875 -8.5 C 18.148438 -7.769531 16.21875 -7.40625 14 -7.40625 L 8.203125 -7.40625 L 8.203125 0 L 3.4375 0 L 3.4375 -25.65625 Z M 13.78125 -11.4375 C 15.851562 -11.4375 17.425781 -11.875 18.5 -12.75 C 19.570312 -13.625 20.109375 -14.882812 20.109375 -16.53125 C 20.109375 -18.164062 19.570312 -19.421875 18.5 -20.296875 C 17.425781 -21.179688 15.851562 -21.625 13.78125 -21.625 L 8.203125 -21.625 L 8.203125 -11.4375 Z M 13.78125 -11.4375 "/></g></g></g><g fill="#ffffff" fill-opacity="1"><g transform="translate(148.440518, 34.571672)"><g><path d="M 7.359375 -16.703125 C 8.679688 -18.753906 11.003906 -19.78125 14.328125 -19.78125 L 14.328125 -15.421875 C 13.929688 -15.492188 13.578125 -15.53125 13.265625 -15.53125 C 11.484375 -15.53125 10.085938 -15.007812 9.078125 -13.96875 C 8.078125 -12.9375 7.578125 -11.441406 7.578125 -9.484375 L 7.578125 0 L 3 0 L 3 -19.5625 L 7.359375 -19.5625 Z M 7.359375 -16.703125 "/></g></g></g><g fill="#ffffff" fill-opacity="1"><g transform="translate(163.461838, 34.571672)"><g><path d="M 11.796875 0.25 C 9.816406 0.25 8.03125 -0.175781 6.4375 -1.03125 C 4.851562 -1.882812 3.613281 -3.070312 2.71875 -4.59375 C 1.832031 -6.125 1.390625 -7.851562 1.390625 -9.78125 C 1.390625 -11.707031 1.832031 -13.425781 2.71875 -14.9375 C 3.613281 -16.457031 4.851562 -17.644531 6.4375 -18.5 C 8.03125 -19.351562 9.816406 -19.78125 11.796875 -19.78125 C 13.796875 -19.78125 15.585938 -19.351562 17.171875 -18.5 C 18.765625 -17.644531 20.003906 -16.457031 20.890625 -14.9375 C 21.785156 -13.425781 22.234375 -11.707031 22.234375 -9.78125 C 22.234375 -7.851562 21.785156 -6.125 20.890625 -4.59375 C 20.003906 -3.070312 18.765625 -1.882812 17.171875 -1.03125 C 15.585938 -0.175781 13.796875 0.25 11.796875 0.25 Z M 11.796875 -3.671875 C 13.484375 -3.671875 14.875 -4.226562 15.96875 -5.34375 C 17.070312 -6.46875 17.625 -7.945312 17.625 -9.78125 C 17.625 -11.613281 17.070312 -13.09375 15.96875 -14.21875 C 14.875 -15.34375 13.484375 -15.90625 11.796875 -15.90625 C 10.109375 -15.90625 8.722656 -15.34375 7.640625 -14.21875 C 6.554688 -13.09375 6.015625 -11.613281 6.015625 -9.78125 C 6.015625 -7.945312 6.554688 -6.46875 7.640625 -5.34375 C 8.722656 -4.226562 10.109375 -3.671875 11.796875 -3.671875 Z M 11.796875 -3.671875 "/></g></g></g><g fill="#ffffff" fill-opacity="1"><g transform="translate(187.092969, 34.571672)"><g><path d="M 11.796875 0.25 C 9.816406 0.25 8.03125 -0.175781 6.4375 -1.03125 C 4.851562 -1.882812 3.613281 -3.070312 2.71875 -4.59375 C 1.832031 -6.125 1.390625 -7.851562 1.390625 -9.78125 C 1.390625 -11.707031 1.832031 -13.425781 2.71875 -14.9375 C 3.613281 -16.457031 4.851562 -17.644531 6.4375 -18.5 C 8.03125 -19.351562 9.816406 -19.78125 11.796875 -19.78125 C 13.796875 -19.78125 15.585938 -19.351562 17.171875 -18.5 C 18.765625 -17.644531 20.003906 -16.457031 20.890625 -14.9375 C 21.785156 -13.425781 22.234375 -11.707031 22.234375 -9.78125 C 22.234375 -7.851562 21.785156 -6.125 20.890625 -4.59375 C 20.003906 -3.070312 18.765625 -1.882812 17.171875 -1.03125 C 15.585938 -0.175781 13.796875 0.25 11.796875 0.25 Z M 11.796875 -3.671875 C 13.484375 -3.671875 14.875 -4.226562 15.96875 -5.34375 C 17.070312 -6.46875 17.625 -7.945312 17.625 -9.78125 C 17.625 -11.613281 17.070312 -13.09375 15.96875 -14.21875 C 14.875 -15.34375 13.484375 -15.90625 11.796875 -15.90625 C 10.109375 -15.90625 8.722656 -15.34375 7.640625 -14.21875 C 6.554688 -13.09375 6.015625 -11.613281 6.015625 -9.78125 C 6.015625 -7.945312 6.554688 -6.46875 7.640625 -5.34375 C 8.722656 -4.226562 10.109375 -3.671875 11.796875 -3.671875 Z M 11.796875 -3.671875 "/></g></g></g><g fill="#ffffff" fill-opacity="1"><g transform="translate(210.724101, 34.571672)"><g><path d="M 10.953125 -23.75 C 9.023438 -23.75 8.0625 -22.695312 8.0625 -20.59375 L 8.0625 -19.421875 L 13.453125 -19.421875 L 13.453125 -15.75 L 8.203125 -15.75 L 8.203125 0 L 3.625 0 L 3.625 -15.75 L 0.40625 -15.75 L 0.40625 -19.421875 L 3.625 -19.421875 L 3.625 -20.671875 C 3.625 -22.765625 4.234375 -24.414062 5.453125 -25.625 C 6.679688 -26.832031 8.40625 -27.4375 10.625 -27.4375 C 12.382812 -27.4375 13.765625 -27.082031 14.765625 -26.375 L 13.484375 -22.9375 C 12.703125 -23.476562 11.859375 -23.75 10.953125 -23.75 Z M 10.953125 -23.75 "/></g></g></g><g fill="#ffffff" fill-opacity="1"><g transform="translate(223.8769, 34.571672)"><g><path d="M 4.5 -5.828125 C 5.363281 -5.828125 6.070312 -5.546875 6.625 -4.984375 C 7.1875 -4.421875 7.46875 -3.6875 7.46875 -2.78125 C 7.46875 -2.394531 7.410156 -1.988281 7.296875 -1.5625 C 7.191406 -1.132812 6.96875 -0.492188 6.625 0.359375 L 4.765625 5.53125 L 1.796875 5.53125 L 3.265625 -0.078125 C 2.722656 -0.296875 2.296875 -0.640625 1.984375 -1.109375 C 1.679688 -1.585938 1.53125 -2.144531 1.53125 -2.78125 C 1.53125 -3.6875 1.8125 -4.421875 2.375 -4.984375 C 2.9375 -5.546875 3.644531 -5.828125 4.5 -5.828125 Z M 4.5 -5.828125 "/></g></g></g><g fill="#ffffff" fill-opacity="1"><g transform="translate(232.816422, 34.571672)"><g/></g></g><g fill="#ffffff" fill-opacity="1"><g transform="translate(242.928352, 34.571672)"><g><path d="M 8.203125 -21.65625 L 8.203125 -13.84375 L 20.59375 -13.84375 L 20.59375 -9.8125 L 8.203125 -9.8125 L 8.203125 0 L 3.4375 0 L 3.4375 -25.65625 L 22.171875 -25.65625 L 22.171875 -21.65625 Z M 8.203125 -21.65625 "/></g></g></g><g fill="#ffffff" fill-opacity="1"><g transform="translate(265.643512, 34.571672)"><g><path d="M 10.484375 -19.78125 C 13.359375 -19.78125 15.5625 -19.085938 17.09375 -17.703125 C 18.625 -16.328125 19.390625 -14.25 19.390625 -11.46875 L 19.390625 0 L 15.0625 0 L 15.0625 -2.375 C 14.5 -1.519531 13.695312 -0.867188 12.65625 -0.421875 C 11.625 0.0234375 10.375 0.25 8.90625 0.25 C 7.4375 0.25 6.148438 0 5.046875 -0.5 C 3.953125 -1 3.101562 -1.691406 2.5 -2.578125 C 1.90625 -3.472656 1.609375 -4.484375 1.609375 -5.609375 C 1.609375 -7.367188 2.257812 -8.78125 3.5625 -9.84375 C 4.875 -10.90625 6.9375 -11.4375 9.75 -11.4375 L 14.796875 -11.4375 L 14.796875 -11.71875 C 14.796875 -13.09375 14.382812 -14.144531 13.5625 -14.875 C 12.75 -15.601562 11.535156 -15.96875 9.921875 -15.96875 C 8.828125 -15.96875 7.75 -15.796875 6.6875 -15.453125 C 5.625 -15.117188 4.726562 -14.644531 4 -14.03125 L 2.203125 -17.375 C 3.222656 -18.15625 4.453125 -18.75 5.890625 -19.15625 C 7.335938 -19.570312 8.867188 -19.78125 10.484375 -19.78125 Z M 9.859375 -3.078125 C 11.003906 -3.078125 12.019531 -3.335938 12.90625 -3.859375 C 13.800781 -4.390625 14.429688 -5.144531 14.796875 -6.125 L 14.796875 -8.390625 L 10.078125 -8.390625 C 7.441406 -8.390625 6.125 -7.523438 6.125 -5.796875 C 6.125 -4.960938 6.453125 -4.300781 7.109375 -3.8125 C 7.765625 -3.320312 8.679688 -3.078125 9.859375 -3.078125 Z M 9.859375 -3.078125 "/></g></g></g><g fill="#ffffff" fill-opacity="1"><g transform="translate(287.882419, 34.571672)"><g><path d="M 9.046875 0.25 C 7.460938 0.25 5.910156 0.046875 4.390625 -0.359375 C 2.878906 -0.773438 1.671875 -1.300781 0.765625 -1.9375 L 2.53125 -5.421875 C 3.40625 -4.835938 4.457031 -4.367188 5.6875 -4.015625 C 6.925781 -3.660156 8.144531 -3.484375 9.34375 -3.484375 C 12.082031 -3.484375 13.453125 -4.203125 13.453125 -5.640625 C 13.453125 -6.328125 13.101562 -6.800781 12.40625 -7.0625 C 11.707031 -7.332031 10.585938 -7.59375 9.046875 -7.84375 C 7.429688 -8.082031 6.117188 -8.359375 5.109375 -8.671875 C 4.097656 -8.992188 3.21875 -9.550781 2.46875 -10.34375 C 1.726562 -11.144531 1.359375 -12.253906 1.359375 -13.671875 C 1.359375 -15.523438 2.132812 -17.003906 3.6875 -18.109375 C 5.238281 -19.222656 7.332031 -19.78125 9.96875 -19.78125 C 11.3125 -19.78125 12.65625 -19.628906 14 -19.328125 C 15.34375 -19.023438 16.441406 -18.613281 17.296875 -18.09375 L 15.53125 -14.625 C 13.875 -15.59375 12.003906 -16.078125 9.921875 -16.078125 C 8.585938 -16.078125 7.570312 -15.875 6.875 -15.46875 C 6.175781 -15.070312 5.828125 -14.546875 5.828125 -13.890625 C 5.828125 -13.148438 6.195312 -12.628906 6.9375 -12.328125 C 7.6875 -12.023438 8.84375 -11.738281 10.40625 -11.46875 C 11.96875 -11.226562 13.25 -10.945312 14.25 -10.625 C 15.25 -10.3125 16.109375 -9.773438 16.828125 -9.015625 C 17.554688 -8.253906 17.921875 -7.179688 17.921875 -5.796875 C 17.921875 -3.960938 17.125 -2.492188 15.53125 -1.390625 C 13.945312 -0.296875 11.785156 0.25 9.046875 0.25 Z M 9.046875 0.25 "/></g></g></g><g fill="#ffffff" fill-opacity="1"><g transform="translate(306.750687, 34.571672)"><g><path d="M 14.765625 -1.0625 C 14.222656 -0.625 13.566406 -0.296875 12.796875 -0.078125 C 12.035156 0.140625 11.226562 0.25 10.375 0.25 C 8.21875 0.25 6.550781 -0.304688 5.375 -1.421875 C 4.207031 -2.546875 3.625 -4.1875 3.625 -6.34375 L 3.625 -15.75 L 0.40625 -15.75 L 0.40625 -19.421875 L 3.625 -19.421875 L 3.625 -23.890625 L 8.203125 -23.890625 L 8.203125 -19.421875 L 13.453125 -19.421875 L 13.453125 -15.75 L 8.203125 -15.75 L 8.203125 -6.453125 C 8.203125 -5.492188 8.429688 -4.765625 8.890625 -4.265625 C 9.359375 -3.765625 10.035156 -3.515625 10.921875 -3.515625 C 11.941406 -3.515625 12.796875 -3.785156 13.484375 -4.328125 Z M 14.765625 -1.0625 "/></g></g></g></g></g></g></g></g></svg>